<?xml version="1.0" encoding="UTF-8"?>
<svg fill="none" viewBox="0 0 512 512"
	xmlns="http://www.w3.org/2000/svg">
	<path d="m469.16 323.9c-5.633 0-10.199 4.567-10.199 10.199v117.29c0 5.633 4.566 10.199 10.199 10.199s10.199-4.567 10.199-10.199v-117.29c1e-3 -5.632-4.566-10.199-10.199-10.199z"/>
	<path d="m469.16 283.1c-5.633 0-10.199 4.567-10.199 10.199v7.139c0 5.633 4.566 10.199 10.199 10.199s10.199-4.567 10.199-10.199v-7.139c1e-3 -5.631-4.566-10.199-10.199-10.199z"/>
	<path d="m501.8 57.625h-42.837v-31.617c0-5.632-4.566-10.199-10.199-10.199s-10.199 4.567-10.199 10.199v31.617h-42.837v-31.617c0-5.632-4.566-10.199-10.199-10.199s-10.199 4.567-10.199 10.199v31.617h-45.896v-31.617c0-5.632-4.566-10.199-10.199-10.199s-10.199 4.567-10.199 10.199v31.617h-42.837v-31.617c0-5.632-4.566-10.199-10.199-10.199s-10.199 4.567-10.199 10.199v31.617h-42.837v-31.617c0-5.632-4.566-10.199-10.199-10.199s-10.199 4.567-10.199 10.199v31.617h-45.896v-31.617c0-5.632-4.566-10.199-10.199-10.199s-10.199 4.567-10.199 10.199v31.617h-42.839v-31.617c0-5.632-4.566-10.199-10.199-10.199s-10.199 4.567-10.199 10.199v31.617h-42.837c-5.633 0-10.199 4.568-10.199 10.2v418.17c0 5.632 4.566 10.199 10.199 10.199h491.6c5.633 0 10.199-4.567 10.199-10.199v-418.17c0-5.632-4.566-10.2-10.199-10.2zm-10.199 418.17h-471.2v-323.24h471.2v323.24zm0-343.64h-471.2v-54.133h32.637v22.438c0 5.632 4.566 10.199 10.199 10.199s10.199-4.567 10.199-10.199v-22.438h42.837v22.438c0 5.632 4.566 10.199 10.199 10.199s10.199-4.567 10.199-10.199v-22.438h45.896v22.438c0 5.632 4.566 10.199 10.199 10.199s10.199-4.567 10.199-10.199v-22.438h42.837v22.438c0 5.632 4.566 10.199 10.199 10.199s10.199-4.567 10.199-10.199v-22.438h42.837v22.438c0 5.632 4.566 10.199 10.199 10.199s10.199-4.567 10.199-10.199v-22.438h45.896v22.438c0 5.632 4.566 10.199 10.199 10.199s10.199-4.567 10.199-10.199v-22.438h42.837v22.438c0 5.632 4.566 10.199 10.199 10.199s10.199-4.567 10.199-10.199v-22.438h32.637v54.133z"/>
	<path d="m433.47 200.49h-354.93c-5.633 0-10.199 4.567-10.199 10.199v206.97c0 5.632 4.566 10.199 10.199 10.199h354.93c5.633 0 10.199-4.567 10.199-10.199v-206.97c0-5.632-4.566-10.199-10.199-10.199zm-246.82 206.97h-97.912v-48.407h97.912v48.407zm0-68.806h-97.912v-48.956h97.912v48.956zm0-69.354h-97.912v-48.408h97.912v48.408zm118.31 138.16h-97.912v-48.407h97.912v48.407zm0-68.806h-97.912v-48.956h97.912v48.956zm0-69.354h-97.912v-48.408h97.912v48.408zm118.31 138.16h-97.912v-48.407h97.912v48.407zm0-68.806h-97.912v-48.956h97.912v48.956zm0-69.354h-97.912v-48.408h97.912v48.408z"/>
</svg>
