<?xml version="1.0" encoding="UTF-8"?>
<svg fill="none" viewBox="0 0 269 200"
    xmlns="http://www.w3.org/2000/svg">
    <line transform="matrix(-.70711 -.70711 -.70711 .70711 195.82 199.82)" x1="10" x2="175" y1="-10" y2="-10" stroke="#fff" stroke-linecap="round" stroke-width="20"/>
    <line x1="65" x2="181.67" y1="185.67" y2="69" stroke="#fff" stroke-linecap="round" stroke-width="20"/>
    <path d="m146.23 54.214c-3.934-3.947-3.882-10.347 0.114-14.231l32.435-31.517c3.921-3.8098 10.174-3.7649 14.04 0.10075l10.519 10.52 24.558 24.998c2.113 2.1508 3.143 5.1402 2.803 8.1361l-6.497 57.228c-0.946 8.329-11.103 11.868-17.02 5.931l-60.952-61.166z" fill="#fff"/>
    <path d="m121.88 54.279c3.933-3.947 3.881-10.347-0.115-14.23l-32.434-31.517c-3.9208-3.8098-10.174-3.7649-14.04 0.10075l-10.52 10.52-24.558 24.998c-2.113 2.1509-3.1427 5.1403-2.8026 8.1361l6.4973 57.227c0.9456 8.329 11.103 11.868 17.02 5.931l60.953-61.165z" fill="#fff"/>
</svg>
