<?xml version="1.0" encoding="UTF-8"?>
<svg enable-background="new 0 0 186.368 186.368" version="1.1" viewBox="0 0 186.37 186.37" xml:space="preserve"
	xmlns="http://www.w3.org/2000/svg">
	<path d="m183.93 119.53c-10.472-3.479-22.337-6.286-35.08-8.436l4.234-11.109 1.174 0.062c0.063 4e-3 0.127 4e-3 0.19 4e-3 0.613 0 1.217-0.157 1.752-0.46l21.612-12.195c1.717-0.968 2.321-3.144 1.355-4.858-0.968-1.717-3.139-2.323-4.858-1.355l-20.709 11.686-38.817-2.071c-0.17-0.034-0.319-0.117-0.497-0.126-0.19-0.015-0.356 0.056-0.539 0.071l-19.339-1.032c-1.919-0.07-3.646 1.407-3.751 3.371-0.104 1.968 1.405 3.646 3.371 3.754l16.344 0.871-0.448 9.171c-7.067-0.382-14.23-0.627-21.506-0.627-8.739 0-17.323 0.309-25.728 0.854l-23.815-48.375h28.878c1.969 0 3.566-1.595 3.566-3.566 0-19.661-15.996-35.658-35.658-35.658s-35.658 15.997-35.658 35.658c0 1.971 1.597 3.566 3.566 3.566h27.506c0.059 0.215 0.068 0.436 0.17 0.644l23.765 48.276c-17.885 1.531-34.712 4.3-49.724 8.223-1.905 0.498-3.045 2.448-2.547 4.353 0.496 1.905 2.436 3.03 4.351 2.549 23.498-6.143 51.621-9.392 81.326-9.392 35.075 0 68.196 4.586 93.263 12.916 0.375 0.122 0.752 0.181 1.125 0.181 1.494 0 2.887-0.947 3.385-2.441 0.62-1.87-0.391-3.886-2.259-4.509zm-176.57-67.931c1.762-14.051 13.784-24.961 28.305-24.961s26.543 10.91 28.305 24.961h-56.61zm134.3 58.352c-7.924-1.146-16.154-2.027-24.607-2.642l0.45-9.222 28.108 1.498-3.951 10.366z"/>
	<path d="m167.59 134.77c-1.969 0-3.566 1.595-3.566 3.566 0 11.798-9.597 21.395-21.395 21.395s-21.395-9.597-21.395-21.395c0-1.971-1.597-3.566-3.566-3.566s-3.566 1.595-3.566 3.566c0 11.798-9.597 21.395-21.395 21.395s-21.395-9.597-21.395-21.395c0-1.971-1.597-3.566-3.566-3.566s-3.566 1.595-3.566 3.566c0 11.798-9.597 21.395-21.395 21.395s-21.395-9.597-21.395-21.395c0-1.971-1.597-3.566-3.566-3.566s-3.566 1.595-3.566 3.566c0 15.729 12.797 28.526 28.526 28.526 10.733 0 20.093-5.964 24.961-14.747 4.868 8.783 14.228 14.747 24.961 14.747s20.093-5.964 24.961-14.747c4.868 8.783 14.228 14.747 24.961 14.747 15.729 0 28.526-12.797 28.526-28.526 2e-3 -1.971-1.595-3.566-3.564-3.566z"/>
</svg>
