<svg width="269" height="200" viewBox="0 0 269 200" fill="none" xmlns="http://www.w3.org/2000/svg">
<line x1="10" y1="-10" x2="175" y2="-10" transform="matrix(-0.707107 -0.707107 -0.707107 0.707107 195.815 199.815)" stroke="white" stroke-width="20" stroke-linecap="round"/>
<line x1="65" y1="185.673" x2="181.673" y2="69" stroke="white" stroke-width="20" stroke-linecap="round"/>
<path d="M146.229 54.2143C142.295 50.2673 142.347 43.8669 146.343 39.9837L178.778 8.46696C182.699 4.65717 188.952 4.70203 192.818 8.56771L203.337 19.0875L227.895 44.0854C230.008 46.2362 231.038 49.2256 230.698 52.2215L224.201 109.449C223.255 117.778 213.098 121.317 207.181 115.38L146.229 54.2143Z" fill="white"/>
<path d="M121.877 54.2786C125.81 50.3316 125.758 43.9312 121.762 40.0481L89.3276 8.53129C85.4068 4.7215 79.1533 4.76637 75.2877 8.63204L64.7679 19.1518L40.2101 44.1497C38.0971 46.3006 37.0674 49.29 37.4075 52.2858L43.9048 109.513C44.8504 117.842 55.0077 121.381 60.9244 115.444L121.877 54.2786Z" fill="white"/>
</svg>
